%TF.GenerationSoftware,KiCad,Pcbnew,7.0.9*%
%TF.CreationDate,2024-06-03T19:44:06+03:00*%
%TF.ProjectId,LinuxCore-v2,4c696e75-7843-46f7-9265-2d76322e6b69,rev?*%
%TF.SameCoordinates,Original*%
%TF.FileFunction,Legend,Bot*%
%TF.FilePolarity,Positive*%
%FSLAX46Y46*%
G04 Gerber Fmt 4.6, Leading zero omitted, Abs format (unit mm)*
G04 Created by KiCad (PCBNEW 7.0.9) date 2024-06-03 19:44:06*
%MOMM*%
%LPD*%
G01*
G04 APERTURE LIST*
%ADD10C,0.150000*%
%ADD11C,0.120000*%
G04 APERTURE END LIST*
D10*
X173281969Y-77686667D02*
X173281969Y-78305714D01*
X173281969Y-78305714D02*
X173662921Y-77972381D01*
X173662921Y-77972381D02*
X173662921Y-78115238D01*
X173662921Y-78115238D02*
X173710540Y-78210476D01*
X173710540Y-78210476D02*
X173758159Y-78258095D01*
X173758159Y-78258095D02*
X173853397Y-78305714D01*
X173853397Y-78305714D02*
X174091492Y-78305714D01*
X174091492Y-78305714D02*
X174186730Y-78258095D01*
X174186730Y-78258095D02*
X174234350Y-78210476D01*
X174234350Y-78210476D02*
X174281969Y-78115238D01*
X174281969Y-78115238D02*
X174281969Y-77829524D01*
X174281969Y-77829524D02*
X174234350Y-77734286D01*
X174234350Y-77734286D02*
X174186730Y-77686667D01*
X174281969Y-73105714D02*
X174281969Y-72534286D01*
X174281969Y-72820000D02*
X173281969Y-72820000D01*
X173281969Y-72820000D02*
X173424826Y-72724762D01*
X173424826Y-72724762D02*
X173520064Y-72629524D01*
X173520064Y-72629524D02*
X173567683Y-72534286D01*
X169623005Y-73135714D02*
X169623005Y-72564286D01*
X169623005Y-72850000D02*
X168623005Y-72850000D01*
X168623005Y-72850000D02*
X168765862Y-72754762D01*
X168765862Y-72754762D02*
X168861100Y-72659524D01*
X168861100Y-72659524D02*
X168908719Y-72564286D01*
X168623005Y-77716667D02*
X168623005Y-78335714D01*
X168623005Y-78335714D02*
X169003957Y-78002381D01*
X169003957Y-78002381D02*
X169003957Y-78145238D01*
X169003957Y-78145238D02*
X169051576Y-78240476D01*
X169051576Y-78240476D02*
X169099195Y-78288095D01*
X169099195Y-78288095D02*
X169194433Y-78335714D01*
X169194433Y-78335714D02*
X169432528Y-78335714D01*
X169432528Y-78335714D02*
X169527766Y-78288095D01*
X169527766Y-78288095D02*
X169575386Y-78240476D01*
X169575386Y-78240476D02*
X169623005Y-78145238D01*
X169623005Y-78145238D02*
X169623005Y-77859524D01*
X169623005Y-77859524D02*
X169575386Y-77764286D01*
X169575386Y-77764286D02*
X169527766Y-77716667D01*
D11*
%TO.C,C10*%
X155599314Y-94550000D02*
X155814986Y-94550000D01*
X155599314Y-95270000D02*
X155814986Y-95270000D01*
%TO.C,C78*%
X144037836Y-76820000D02*
X143822164Y-76820000D01*
X144037836Y-76100000D02*
X143822164Y-76100000D01*
%TO.C,C32*%
X153659314Y-93500000D02*
X153874986Y-93500000D01*
X153659314Y-94220000D02*
X153874986Y-94220000D01*
%TO.C,C5*%
X155599314Y-93500000D02*
X155814986Y-93500000D01*
X155599314Y-94220000D02*
X155814986Y-94220000D01*
%TO.C,C79*%
X141862164Y-76090000D02*
X142077836Y-76090000D01*
X141862164Y-76810000D02*
X142077836Y-76810000D01*
%TO.C,C33*%
X150237150Y-90047836D02*
X150237150Y-89832164D01*
X150957150Y-90047836D02*
X150957150Y-89832164D01*
%TO.C,C25*%
X147847150Y-89012164D02*
X147847150Y-89227836D01*
X147127150Y-89012164D02*
X147127150Y-89227836D01*
%TO.C,R22*%
X166604545Y-75070000D02*
X166911827Y-75070000D01*
X166604545Y-75830000D02*
X166911827Y-75830000D01*
%TO.C,R14*%
X137120000Y-54656359D02*
X137120000Y-54963641D01*
X136360000Y-54656359D02*
X136360000Y-54963641D01*
%TO.C,R54*%
X140890000Y-79603641D02*
X140890000Y-79296359D01*
X141650000Y-79603641D02*
X141650000Y-79296359D01*
%TO.C,R60*%
X163410000Y-107453641D02*
X163410000Y-107146359D01*
X164170000Y-107453641D02*
X164170000Y-107146359D01*
%TO.C,C6*%
X157794986Y-94230000D02*
X157579314Y-94230000D01*
X157794986Y-93510000D02*
X157579314Y-93510000D01*
%TO.C,R42*%
X150840000Y-62173641D02*
X150840000Y-61866359D01*
X151600000Y-62173641D02*
X151600000Y-61866359D01*
%TO.C,C30*%
X149207150Y-90037836D02*
X149207150Y-89822164D01*
X149927150Y-90037836D02*
X149927150Y-89822164D01*
%TO.C,C27*%
X147829314Y-91090000D02*
X148044986Y-91090000D01*
X147829314Y-91810000D02*
X148044986Y-91810000D01*
%TO.C,C24*%
X148777150Y-84012164D02*
X148777150Y-84227836D01*
X148057150Y-84012164D02*
X148057150Y-84227836D01*
%TO.C,R62*%
X161212850Y-107403641D02*
X161212850Y-107096359D01*
X161972850Y-107403641D02*
X161972850Y-107096359D01*
%TO.C,R57*%
X131310000Y-126486359D02*
X131310000Y-126793641D01*
X130550000Y-126486359D02*
X130550000Y-126793641D01*
%TO.C,R63*%
X165325700Y-107433641D02*
X165325700Y-107126359D01*
X166085700Y-107433641D02*
X166085700Y-107126359D01*
%TO.C,C29*%
X147467836Y-94460000D02*
X147252164Y-94460000D01*
X147467836Y-93740000D02*
X147252164Y-93740000D01*
%TO.C,C20*%
X157824986Y-91060000D02*
X157609314Y-91060000D01*
X157824986Y-90340000D02*
X157609314Y-90340000D01*
%TO.C,C61*%
X151930000Y-60157836D02*
X151930000Y-59942164D01*
X152650000Y-60157836D02*
X152650000Y-59942164D01*
%TO.C,C11*%
X157794986Y-95290000D02*
X157579314Y-95290000D01*
X157794986Y-94570000D02*
X157579314Y-94570000D01*
%TO.C,R58*%
X132530000Y-118563641D02*
X132530000Y-118256359D01*
X133290000Y-118563641D02*
X133290000Y-118256359D01*
%TO.C,R59*%
X130520000Y-118513641D02*
X130520000Y-118206359D01*
X131280000Y-118513641D02*
X131280000Y-118206359D01*
%TO.C,C60*%
X150870000Y-60127836D02*
X150870000Y-59912164D01*
X151590000Y-60127836D02*
X151590000Y-59912164D01*
%TO.C,JP1*%
X174827150Y-73370000D02*
X172827150Y-73370000D01*
X172827150Y-73370000D02*
X172827150Y-77470000D01*
X174827150Y-77470000D02*
X174827150Y-73370000D01*
X172827150Y-77470000D02*
X174827150Y-77470000D01*
%TO.C,R20*%
X171293509Y-75050000D02*
X171600791Y-75050000D01*
X171293509Y-75810000D02*
X171600791Y-75810000D01*
%TO.C,R38*%
X148630000Y-62203641D02*
X148630000Y-61896359D01*
X149390000Y-62203641D02*
X149390000Y-61896359D01*
%TO.C,R39*%
X157400000Y-62173641D02*
X157400000Y-61866359D01*
X158160000Y-62173641D02*
X158160000Y-61866359D01*
%TO.C,C18*%
X157804986Y-93150000D02*
X157589314Y-93150000D01*
X157804986Y-92430000D02*
X157589314Y-92430000D01*
%TO.C,JP2*%
X170168186Y-73400000D02*
X168168186Y-73400000D01*
X168168186Y-73400000D02*
X168168186Y-77500000D01*
X170168186Y-77500000D02*
X170168186Y-73400000D01*
X168168186Y-77500000D02*
X170168186Y-77500000D01*
%TO.C,R41*%
X156340000Y-62183641D02*
X156340000Y-61876359D01*
X157100000Y-62183641D02*
X157100000Y-61876359D01*
%TO.C,C21*%
X157814986Y-87980000D02*
X157599314Y-87980000D01*
X157814986Y-87260000D02*
X157599314Y-87260000D01*
%TO.C,R40*%
X149730000Y-62193641D02*
X149730000Y-61886359D01*
X150490000Y-62193641D02*
X150490000Y-61886359D01*
%TO.C,R61*%
X159212850Y-107393641D02*
X159212850Y-107086359D01*
X159972850Y-107393641D02*
X159972850Y-107086359D01*
%TO.C,R56*%
X133300000Y-126446359D02*
X133300000Y-126753641D01*
X132540000Y-126446359D02*
X132540000Y-126753641D01*
%TO.C,C17*%
X157609314Y-89300000D02*
X157824986Y-89300000D01*
X157609314Y-90020000D02*
X157824986Y-90020000D01*
%TO.C,R52*%
X135710000Y-80823641D02*
X135710000Y-80516359D01*
X136470000Y-80823641D02*
X136470000Y-80516359D01*
%TO.C,C19*%
X157609314Y-88280000D02*
X157824986Y-88280000D01*
X157609314Y-89000000D02*
X157824986Y-89000000D01*
%TO.C,C22*%
X154837150Y-84217836D02*
X154837150Y-84002164D01*
X155557150Y-84217836D02*
X155557150Y-84002164D01*
%TO.C,R43*%
X155220000Y-62173641D02*
X155220000Y-61866359D01*
X155980000Y-62173641D02*
X155980000Y-61866359D01*
%TO.C,C23*%
X157824986Y-92110000D02*
X157609314Y-92110000D01*
X157824986Y-91390000D02*
X157609314Y-91390000D01*
%TO.C,R15*%
X136010000Y-54636359D02*
X136010000Y-54943641D01*
X135250000Y-54636359D02*
X135250000Y-54943641D01*
%TO.C,C31*%
X148480000Y-93757836D02*
X148480000Y-93542164D01*
X149200000Y-93757836D02*
X149200000Y-93542164D01*
%TO.C,R53*%
X136550000Y-77996359D02*
X136550000Y-78303641D01*
X135790000Y-77996359D02*
X135790000Y-78303641D01*
%TO.C,C26*%
X148157150Y-90037836D02*
X148157150Y-89822164D01*
X148877150Y-90037836D02*
X148877150Y-89822164D01*
%TO.C,C34*%
X153659314Y-94540000D02*
X153874986Y-94540000D01*
X153659314Y-95260000D02*
X153874986Y-95260000D01*
%TO.C,C59*%
X153050000Y-62147836D02*
X153050000Y-61932164D01*
X153770000Y-62147836D02*
X153770000Y-61932164D01*
%TD*%
M02*
