M48
; DRILL file {KiCad 7.0.9} date Mon Jun  3 19:44:04 2024
; FORMAT={-:-/ absolute / inch / decimal}
; #@! TF.CreationDate,2024-06-03T19:44:04+03:00
; #@! TF.GenerationSoftware,Kicad,Pcbnew,7.0.9
; #@! TF.FileFunction,Plated,1,4,PTH
FMAT,2
INCH
; #@! TA.AperFunction,Plated,PTH,ViaDrill
T1C0.0118
; #@! TA.AperFunction,Plated,PTH,ComponentDrill
T2C0.0236
; #@! TA.AperFunction,Plated,PTH,ComponentDrill
T3C0.0256
; #@! TA.AperFunction,Plated,PTH,ComponentDrill
T4C0.0300
; #@! TA.AperFunction,Plated,PTH,ComponentDrill
T5C0.0362
; #@! TA.AperFunction,Plated,PTH,ComponentDrill
T6C0.0394
; #@! TA.AperFunction,Plated,PTH,ComponentDrill
T7C0.0906
%
G90
G05
T1
X4.874Y-2.5512
X4.874Y-2.6693
X4.8976Y-2.5512
X4.8976Y-2.6693
X4.9213Y-2.5512
X4.9213Y-2.6693
X4.9449Y-2.5512
X4.9449Y-2.6693
X4.9685Y-3.3579
X4.998Y-3.4724
X5.0402Y-4.1776
X5.0429Y-4.2815
X5.0591Y-4.0787
X5.0618Y-4.1181
X5.0634Y-4.1575
X5.0645Y-4.204
X5.0649Y-4.2292
X5.0664Y-4.2544
X5.0681Y-4.2795
X5.1496Y-2.4882
X5.1496Y-2.5118
X5.1496Y-2.5354
X5.1496Y-2.5591
X5.1531Y-4.0843
X5.1732Y-2.4882
X5.1732Y-2.5118
X5.1732Y-2.5354
X5.1732Y-2.5591
X5.1768Y-4.0757
X5.1811Y-2.0
X5.1811Y-2.0227
X5.1811Y-2.0472
X5.1811Y-2.0709
X5.2047Y-2.0
X5.2047Y-2.0236
X5.2047Y-2.0472
X5.2047Y-2.0709
X5.2083Y-4.2362
X5.2174Y-4.0855
X5.2178Y-4.0603
X5.2227Y-3.586
X5.2258Y-3.611
X5.2268Y-3.4122
X5.2374Y-3.6579
X5.2449Y-3.5577
X5.2476Y-4.0327
X5.2498Y-3.4783
X5.2559Y-2.8839
X5.262Y-3.6632
X5.2773Y-3.7421
X5.2834Y-4.0418
X5.2854Y-2.8839
X5.2889Y-2.0331
X5.2979Y-3.4515
X5.3Y-3.2736
X5.3109Y-3.4076
X5.3138Y-3.1067
X5.315Y-2.8839
X5.3162Y-3.4322
X5.3165Y-4.2492
X5.3168Y-4.6065
X5.3445Y-2.8839
X5.3467Y-3.9265
X5.3547Y-4.4377
X5.3571Y-3.1551
X5.3579Y-3.1966
X5.3587Y-4.25
X5.361Y-3.0567
X5.3614Y-3.0988
X5.374Y-2.8839
X5.3795Y-3.237
X5.4Y-4.38
X5.4004Y-4.2496
X5.4035Y-2.8839
X5.4267Y-2.0331
X5.4331Y-2.8839
X5.4378Y-4.0394
X5.46Y-4.51
X5.4626Y-2.8839
X5.478Y-4.248
X5.4874Y-3.4762
X5.4921Y-2.8839
X5.5051Y-4.5114
X5.5055Y-4.3843
X5.5126Y-3.4776
X5.5217Y-2.8839
X5.5358Y-2.0335
X5.5398Y-3.4785
X5.5409Y-3.2957
X5.5512Y-2.8839
X5.5563Y-4.0102
X5.5618Y-3.1079
X5.5626Y-3.1476
X5.5654Y-3.4769
X5.5661Y-4.1927
X5.572Y-4.0803
X5.5807Y-2.8839
X5.5921Y-4.1913
X5.5928Y-4.066
X5.6007Y-3.6886
X5.6091Y-3.0567
X5.6102Y-2.8839
X5.6148Y-4.0537
X5.615Y-4.1786
X5.6197Y-4.2465
X5.62Y-4.6065
X5.6248Y-3.6961
X5.6357Y-4.0396
X5.6398Y-2.8839
X5.6401Y-4.1651
X5.6453Y-3.1335
X5.6565Y-4.146
X5.6575Y-4.4377
X5.6587Y-3.6886
X5.6693Y-2.8839
X5.6744Y-4.665
X5.6795Y-4.0346
X5.6808Y-4.1381
X5.6894Y-2.659
X5.6988Y-2.8839
X5.7031Y-4.1246
X5.7039Y-4.2465
X5.7256Y-4.1111
X5.7283Y-2.8839
X5.7291Y-3.8331
X5.7323Y-3.1654
X5.7323Y-3.189
X5.7323Y-3.2126
X5.7323Y-3.2362
X5.7453Y-3.776
X5.7508Y-3.8756
X5.7559Y-3.1654
X5.7559Y-3.189
X5.7559Y-3.2126
X5.7559Y-3.2362
X5.7579Y-2.8839
X5.7693Y-3.9571
X5.7697Y-3.748
X5.7783Y-4.5154
X5.7827Y-3.7067
X5.7874Y-2.8839
X5.7937Y-3.6657
X5.7949Y-3.748
X5.8054Y-3.6004
X5.8066Y-3.5276
X5.8134Y-4.5213
X5.8138Y-4.3787
X5.8169Y-2.8839
X5.8383Y-3.7538
X5.8432Y-3.2929
X5.8465Y-2.8839
X5.8471Y-3.5594
X5.8598Y-3.7055
X5.8646Y-4.474
X5.866Y-2.5384
X5.8665Y-2.4228
X5.876Y-2.8839
X5.9019Y-2.9709
X5.9055Y-2.8839
X5.9093Y-2.5384
X5.918Y-3.4038
X5.9227Y-4.0571
X5.9303Y-3.9458
X5.9303Y-4.2476
X5.931Y-4.6075
X5.9315Y-2.5941
X5.9526Y-2.5384
X5.9623Y-2.8304
X5.9685Y-4.4377
X5.98Y-3.46
X5.9894Y-4.7339
X5.9957Y-2.3465
X5.996Y-2.5384
X6.0138Y-4.2465
X6.0193Y-2.8705
X6.0248Y-3.6575
X6.0307Y-3.2614
X6.0343Y-2.8482
X6.0351Y-2.8972
X6.0351Y-3.0236
X6.0354Y-2.796
X6.0393Y-2.5384
X6.0398Y-2.4244
X6.0435Y-3.3937
X6.0508Y-3.0456
X6.0567Y-3.2607
X6.0666Y-3.0671
X6.0727Y-3.7362
X6.0751Y-3.8506
X6.0819Y-3.2622
X6.0823Y-3.0891
X6.0835Y-2.5386
X6.0856Y-3.6323
X6.0981Y-3.1102
X6.1075Y-3.3937
X6.1101Y-3.2925
X6.1108Y-3.6544
X6.1259Y-2.5384
X6.1491Y-3.6953
X6.1491Y-3.7366
X6.1692Y-2.5384
X6.1893Y-3.7374
X6.1911Y-3.3857
X6.1925Y-2.5866
X6.2106Y-3.3662
X6.2125Y-2.5384
X6.2198Y-2.8237
X6.2205Y-3.1528
X6.2207Y-3.3432
X6.2213Y-3.1272
X6.2221Y-3.318
X6.2274Y-3.6531
X6.2278Y-3.4496
X6.2282Y-3.5299
X6.2282Y-3.5299
X6.2282Y-3.5709
X6.2282Y-3.6122
X6.2302Y-3.2691
X6.2306Y-3.2943
X6.2393Y-2.8432
X6.2461Y-3.9988
X6.2512Y-4.0787
X6.2516Y-3.2498
X6.2525Y-4.1039
X6.2535Y-4.0502
X6.2535Y-3.9291
X6.2535Y-4.0228
X6.2537Y-3.6312
X6.2554Y-2.935
X6.2827Y-4.2419
X6.2873Y-3.1283
X6.2886Y-3.2304
X6.2992Y-3.7717
X6.2992Y-3.7953
X6.2992Y-3.8189
X6.2992Y-3.8425
X6.3228Y-3.7717
X6.3228Y-3.7953
X6.3228Y-3.8189
X6.3228Y-3.8425
X6.3307Y-3.1811
X6.3618Y-4.2427
X6.3685Y-2.4744
X6.3709Y-2.4287
X6.3743Y-4.7846
X6.3822Y-3.2165
X6.3826Y-3.0655
X6.3953Y-3.8346
X6.4071Y-4.1921
X6.4087Y-2.3661
X6.4091Y-2.4283
X6.4091Y-2.4744
X6.4091Y-3.335
X6.4148Y-4.7693
X6.4197Y-4.7106
X6.4293Y-3.4222
X6.4343Y-3.5626
X6.4362Y-3.3345
X6.4409Y-2.4488
X6.4409Y-2.4961
X6.4457Y-3.2838
X6.4484Y-4.2435
X6.4505Y-4.1754
X6.4522Y-3.2451
X6.4524Y-3.4452
X6.4646Y-2.4961
X6.4673Y-4.6606
X6.4717Y-3.2646
X6.4833Y-2.0581
X6.4882Y-2.4961
X6.4898Y-3.7516
X6.5039Y-3.6243
X6.5148Y-2.0817
X6.5213Y-3.3031
X6.5228Y-2.413
X6.5245Y-4.2447
X6.5283Y-3.6039
X6.5426Y-3.6814
X6.5502Y-3.5846
X6.563Y-4.0975
X6.5673Y-3.6874
X6.5677Y-4.5933
X6.5705Y-4.6736
X6.578Y-3.3012
X6.5819Y-4.7346
X6.6306Y-4.3472
X6.6469Y-4.7969
X6.6563Y-3.9272
X6.6598Y-3.0228
X6.67Y-4.5154
X6.6704Y-4.3906
X6.6731Y-4.8947
X6.6736Y-5.0248
X6.733Y-3.9882
X6.745Y-4.9953
X6.7495Y-4.5508
X6.7561Y-5.0179
X6.7717Y-4.5154
X6.7799Y-2.6657
X6.7922Y-4.1303
X6.7922Y-4.1555
X6.8075Y-4.7614
X6.8161Y-4.5969
X6.8177Y-4.3906
X6.8453Y-3.0228
X6.8583Y-2.0315
X6.8583Y-2.0551
X6.8583Y-2.1181
X6.8583Y-2.1417
X6.8819Y-2.0315
X6.8819Y-2.0551
X6.8819Y-2.1181
X6.8819Y-2.1417
X6.8874Y-4.6528
X6.8894Y-4.6787
X6.8898Y-2.4803
X6.8898Y-2.5039
X6.8898Y-2.5354
X6.9055Y-2.0315
X6.9055Y-2.0551
X6.9055Y-2.1181
X6.9055Y-2.1417
X6.9134Y-2.5354
X6.9878Y-4.1563
X7.0Y-4.1303
X7.0067Y-4.2843
X7.0467Y-4.2843
X7.0719Y-4.5114
X7.0731Y-4.3843
X7.0759Y-4.54
X7.0961Y-4.1516
X7.1011Y-4.5397
X7.1041Y-4.5665
X7.1052Y-4.5917
X7.116Y-4.4244
T3
X6.652Y-2.7339
X6.652Y-2.7839
X6.702Y-2.7339
X6.702Y-2.7839
X6.752Y-2.7339
X6.752Y-2.7839
X6.802Y-2.7339
X6.802Y-2.7839
X6.8294Y-4.2984
X6.852Y-2.7339
X6.852Y-2.7839
X6.8794Y-4.2984
T4
X6.9491Y-4.8579
X6.9491Y-4.9366
T5
X5.055Y-4.7495
X5.055Y-4.8527
X5.1534Y-4.7495
X5.1534Y-4.8527
X5.2322Y-4.7495
X5.2322Y-4.8527
X5.3306Y-4.7495
X5.3306Y-4.8527
T6
X4.9133Y-2.8305
X4.9133Y-2.9305
X4.9133Y-3.0305
X4.9133Y-3.1305
X4.9133Y-3.2305
X4.9133Y-3.3305
X4.9133Y-3.4305
X4.9133Y-3.5305
X4.9133Y-3.6305
X4.9133Y-3.7305
X4.9133Y-3.8305
X5.0643Y-2.9325
X5.0643Y-3.0325
X5.0643Y-3.1325
X5.0643Y-3.2325
X5.0643Y-3.3325
X5.0643Y-3.4325
X5.0643Y-3.5325
X5.0643Y-3.6325
X5.0643Y-3.7325
X5.0643Y-3.8325
X5.1643Y-2.9325
X5.1643Y-3.0325
X5.1643Y-3.1325
X5.1643Y-3.2325
X5.1643Y-3.3325
X5.1643Y-3.4325
X5.1643Y-3.5325
X5.1643Y-3.6325
X5.1643Y-3.7325
X5.1643Y-3.8325
X6.9786Y-2.9299
X6.9786Y-3.0299
X6.9786Y-3.1299
X6.9786Y-3.2299
X6.9786Y-3.3299
X6.9786Y-3.4299
X6.9786Y-3.5299
X6.9786Y-3.6299
X6.9786Y-3.7299
X6.9786Y-3.8299
X7.0786Y-2.9299
X7.0786Y-3.0299
X7.0786Y-3.1299
X7.0786Y-3.2299
X7.0786Y-3.3299
X7.0786Y-3.4299
X7.0786Y-3.5299
X7.0786Y-3.6299
X7.0786Y-3.7299
X7.0786Y-3.8299
T7
X4.9341Y-4.7357
X4.9341Y-4.9594
X5.4515Y-4.7357
X5.4515Y-4.9594
T2
G00X5.6369Y-4.8378
M15
G01X5.6369Y-4.8811
M16
G05
G00X5.6369Y-5.0122
M15
G01X5.6369Y-5.0358
M16
G05
G00X5.9771Y-4.8378
M15
G01X5.9771Y-4.8811
M16
G05
G00X5.9771Y-5.0122
M15
G01X5.9771Y-5.0358
M16
G05
G00X6.2156Y-4.8417
M15
G01X6.2156Y-4.885
M16
G05
G00X6.2156Y-5.0161
M15
G01X6.2156Y-5.0398
M16
G05
G00X6.5558Y-4.8417
M15
G01X6.5558Y-4.885
M16
G05
G00X6.5558Y-5.0161
M15
G01X6.5558Y-5.0398
M16
G05
T0
M30
