%TF.GenerationSoftware,KiCad,Pcbnew,7.0.9*%
%TF.CreationDate,2024-06-03T19:44:03+03:00*%
%TF.ProjectId,LinuxCore-v2,4c696e75-7843-46f7-9265-2d76322e6b69,rev?*%
%TF.SameCoordinates,Original*%
%TF.FileFunction,Drillmap*%
%TF.FilePolarity,Positive*%
%FSLAX45Y45*%
G04 Gerber Fmt 4.5, Leading zero omitted, Abs format (unit mm)*
G04 Created by KiCad (PCBNEW 7.0.9) date 2024-06-03 19:44:03*
%MOMM*%
%LPD*%
G01*
G04 APERTURE LIST*
%ADD10C,0.100000*%
%ADD11C,0.200000*%
G04 APERTURE END LIST*
D10*
X17689715Y-12900000D02*
X12689715Y-12900000D01*
X12689715Y-4900000D02*
X17689715Y-4900000D01*
X12189710Y-12400000D02*
G75*
G03*
X12689715Y-12900000I500000J0D01*
G01*
X18189715Y-5400000D02*
X18189715Y-12400000D01*
X12189715Y-12400000D02*
X12189715Y-5400000D01*
X12689715Y-4900005D02*
G75*
G03*
X12189715Y-5400000I-5J-499995D01*
G01*
X18189720Y-5400000D02*
G75*
G03*
X17689715Y-4900000I-500000J0D01*
G01*
X17689715Y-12899995D02*
G75*
G03*
X18189715Y-12400000I5J499995D01*
G01*
D11*
D10*
X14428215Y-12363500D02*
X14493215Y-12428500D01*
X14493215Y-12363500D02*
X14428215Y-12428500D01*
X15006215Y-12363500D02*
X15071215Y-12428500D01*
X15071215Y-12363500D02*
X15006215Y-12428500D01*
X15898215Y-12373500D02*
X15963215Y-12438500D01*
X15963215Y-12373500D02*
X15898215Y-12438500D01*
X16476215Y-12373500D02*
X16541215Y-12438500D01*
X16541215Y-12373500D02*
X16476215Y-12438500D01*
D11*
X12445492Y-13216484D02*
X12445492Y-13016484D01*
X12445492Y-13016484D02*
X12493111Y-13016484D01*
X12493111Y-13016484D02*
X12521682Y-13026008D01*
X12521682Y-13026008D02*
X12540730Y-13045055D01*
X12540730Y-13045055D02*
X12550254Y-13064103D01*
X12550254Y-13064103D02*
X12559777Y-13102198D01*
X12559777Y-13102198D02*
X12559777Y-13130769D01*
X12559777Y-13130769D02*
X12550254Y-13168865D01*
X12550254Y-13168865D02*
X12540730Y-13187912D01*
X12540730Y-13187912D02*
X12521682Y-13206960D01*
X12521682Y-13206960D02*
X12493111Y-13216484D01*
X12493111Y-13216484D02*
X12445492Y-13216484D01*
X12645492Y-13216484D02*
X12645492Y-13083150D01*
X12645492Y-13121246D02*
X12655016Y-13102198D01*
X12655016Y-13102198D02*
X12664539Y-13092674D01*
X12664539Y-13092674D02*
X12683587Y-13083150D01*
X12683587Y-13083150D02*
X12702635Y-13083150D01*
X12769301Y-13216484D02*
X12769301Y-13083150D01*
X12769301Y-13016484D02*
X12759777Y-13026008D01*
X12759777Y-13026008D02*
X12769301Y-13035531D01*
X12769301Y-13035531D02*
X12778825Y-13026008D01*
X12778825Y-13026008D02*
X12769301Y-13016484D01*
X12769301Y-13016484D02*
X12769301Y-13035531D01*
X12893111Y-13216484D02*
X12874063Y-13206960D01*
X12874063Y-13206960D02*
X12864539Y-13187912D01*
X12864539Y-13187912D02*
X12864539Y-13016484D01*
X12997873Y-13216484D02*
X12978825Y-13206960D01*
X12978825Y-13206960D02*
X12969301Y-13187912D01*
X12969301Y-13187912D02*
X12969301Y-13016484D01*
X13226444Y-13216484D02*
X13226444Y-13016484D01*
X13226444Y-13016484D02*
X13293111Y-13159341D01*
X13293111Y-13159341D02*
X13359777Y-13016484D01*
X13359777Y-13016484D02*
X13359777Y-13216484D01*
X13540730Y-13216484D02*
X13540730Y-13111722D01*
X13540730Y-13111722D02*
X13531206Y-13092674D01*
X13531206Y-13092674D02*
X13512158Y-13083150D01*
X13512158Y-13083150D02*
X13474063Y-13083150D01*
X13474063Y-13083150D02*
X13455016Y-13092674D01*
X13540730Y-13206960D02*
X13521682Y-13216484D01*
X13521682Y-13216484D02*
X13474063Y-13216484D01*
X13474063Y-13216484D02*
X13455016Y-13206960D01*
X13455016Y-13206960D02*
X13445492Y-13187912D01*
X13445492Y-13187912D02*
X13445492Y-13168865D01*
X13445492Y-13168865D02*
X13455016Y-13149817D01*
X13455016Y-13149817D02*
X13474063Y-13140293D01*
X13474063Y-13140293D02*
X13521682Y-13140293D01*
X13521682Y-13140293D02*
X13540730Y-13130769D01*
X13635968Y-13083150D02*
X13635968Y-13283150D01*
X13635968Y-13092674D02*
X13655016Y-13083150D01*
X13655016Y-13083150D02*
X13693111Y-13083150D01*
X13693111Y-13083150D02*
X13712158Y-13092674D01*
X13712158Y-13092674D02*
X13721682Y-13102198D01*
X13721682Y-13102198D02*
X13731206Y-13121246D01*
X13731206Y-13121246D02*
X13731206Y-13178388D01*
X13731206Y-13178388D02*
X13721682Y-13197436D01*
X13721682Y-13197436D02*
X13712158Y-13206960D01*
X13712158Y-13206960D02*
X13693111Y-13216484D01*
X13693111Y-13216484D02*
X13655016Y-13216484D01*
X13655016Y-13216484D02*
X13635968Y-13206960D01*
X13816920Y-13197436D02*
X13826444Y-13206960D01*
X13826444Y-13206960D02*
X13816920Y-13216484D01*
X13816920Y-13216484D02*
X13807397Y-13206960D01*
X13807397Y-13206960D02*
X13816920Y-13197436D01*
X13816920Y-13197436D02*
X13816920Y-13216484D01*
X13816920Y-13092674D02*
X13826444Y-13102198D01*
X13826444Y-13102198D02*
X13816920Y-13111722D01*
X13816920Y-13111722D02*
X13807397Y-13102198D01*
X13807397Y-13102198D02*
X13816920Y-13092674D01*
X13816920Y-13092674D02*
X13816920Y-13111722D01*
D10*
X12119715Y-13512500D02*
X12184715Y-13577500D01*
X12184715Y-13512500D02*
X12119715Y-13577500D01*
D11*
X12483587Y-13436484D02*
X12502635Y-13436484D01*
X12502635Y-13436484D02*
X12521682Y-13446008D01*
X12521682Y-13446008D02*
X12531206Y-13455531D01*
X12531206Y-13455531D02*
X12540730Y-13474579D01*
X12540730Y-13474579D02*
X12550254Y-13512674D01*
X12550254Y-13512674D02*
X12550254Y-13560293D01*
X12550254Y-13560293D02*
X12540730Y-13598388D01*
X12540730Y-13598388D02*
X12531206Y-13617436D01*
X12531206Y-13617436D02*
X12521682Y-13626960D01*
X12521682Y-13626960D02*
X12502635Y-13636484D01*
X12502635Y-13636484D02*
X12483587Y-13636484D01*
X12483587Y-13636484D02*
X12464539Y-13626960D01*
X12464539Y-13626960D02*
X12455016Y-13617436D01*
X12455016Y-13617436D02*
X12445492Y-13598388D01*
X12445492Y-13598388D02*
X12435968Y-13560293D01*
X12435968Y-13560293D02*
X12435968Y-13512674D01*
X12435968Y-13512674D02*
X12445492Y-13474579D01*
X12445492Y-13474579D02*
X12455016Y-13455531D01*
X12455016Y-13455531D02*
X12464539Y-13446008D01*
X12464539Y-13446008D02*
X12483587Y-13436484D01*
X12635968Y-13617436D02*
X12645492Y-13626960D01*
X12645492Y-13626960D02*
X12635968Y-13636484D01*
X12635968Y-13636484D02*
X12626444Y-13626960D01*
X12626444Y-13626960D02*
X12635968Y-13617436D01*
X12635968Y-13617436D02*
X12635968Y-13636484D01*
X12816920Y-13436484D02*
X12778825Y-13436484D01*
X12778825Y-13436484D02*
X12759777Y-13446008D01*
X12759777Y-13446008D02*
X12750254Y-13455531D01*
X12750254Y-13455531D02*
X12731206Y-13484103D01*
X12731206Y-13484103D02*
X12721682Y-13522198D01*
X12721682Y-13522198D02*
X12721682Y-13598388D01*
X12721682Y-13598388D02*
X12731206Y-13617436D01*
X12731206Y-13617436D02*
X12740730Y-13626960D01*
X12740730Y-13626960D02*
X12759777Y-13636484D01*
X12759777Y-13636484D02*
X12797873Y-13636484D01*
X12797873Y-13636484D02*
X12816920Y-13626960D01*
X12816920Y-13626960D02*
X12826444Y-13617436D01*
X12826444Y-13617436D02*
X12835968Y-13598388D01*
X12835968Y-13598388D02*
X12835968Y-13550769D01*
X12835968Y-13550769D02*
X12826444Y-13531722D01*
X12826444Y-13531722D02*
X12816920Y-13522198D01*
X12816920Y-13522198D02*
X12797873Y-13512674D01*
X12797873Y-13512674D02*
X12759777Y-13512674D01*
X12759777Y-13512674D02*
X12740730Y-13522198D01*
X12740730Y-13522198D02*
X12731206Y-13531722D01*
X12731206Y-13531722D02*
X12721682Y-13550769D01*
X13016920Y-13436484D02*
X12921682Y-13436484D01*
X12921682Y-13436484D02*
X12912158Y-13531722D01*
X12912158Y-13531722D02*
X12921682Y-13522198D01*
X12921682Y-13522198D02*
X12940730Y-13512674D01*
X12940730Y-13512674D02*
X12988349Y-13512674D01*
X12988349Y-13512674D02*
X13007397Y-13522198D01*
X13007397Y-13522198D02*
X13016920Y-13531722D01*
X13016920Y-13531722D02*
X13026444Y-13550769D01*
X13026444Y-13550769D02*
X13026444Y-13598388D01*
X13026444Y-13598388D02*
X13016920Y-13617436D01*
X13016920Y-13617436D02*
X13007397Y-13626960D01*
X13007397Y-13626960D02*
X12988349Y-13636484D01*
X12988349Y-13636484D02*
X12940730Y-13636484D01*
X12940730Y-13636484D02*
X12921682Y-13626960D01*
X12921682Y-13626960D02*
X12912158Y-13617436D01*
X13150254Y-13436484D02*
X13169301Y-13436484D01*
X13169301Y-13436484D02*
X13188349Y-13446008D01*
X13188349Y-13446008D02*
X13197873Y-13455531D01*
X13197873Y-13455531D02*
X13207397Y-13474579D01*
X13207397Y-13474579D02*
X13216920Y-13512674D01*
X13216920Y-13512674D02*
X13216920Y-13560293D01*
X13216920Y-13560293D02*
X13207397Y-13598388D01*
X13207397Y-13598388D02*
X13197873Y-13617436D01*
X13197873Y-13617436D02*
X13188349Y-13626960D01*
X13188349Y-13626960D02*
X13169301Y-13636484D01*
X13169301Y-13636484D02*
X13150254Y-13636484D01*
X13150254Y-13636484D02*
X13131206Y-13626960D01*
X13131206Y-13626960D02*
X13121682Y-13617436D01*
X13121682Y-13617436D02*
X13112158Y-13598388D01*
X13112158Y-13598388D02*
X13102635Y-13560293D01*
X13102635Y-13560293D02*
X13102635Y-13512674D01*
X13102635Y-13512674D02*
X13112158Y-13474579D01*
X13112158Y-13474579D02*
X13121682Y-13455531D01*
X13121682Y-13455531D02*
X13131206Y-13446008D01*
X13131206Y-13446008D02*
X13150254Y-13436484D01*
X13302635Y-13636484D02*
X13302635Y-13503150D01*
X13302635Y-13522198D02*
X13312158Y-13512674D01*
X13312158Y-13512674D02*
X13331206Y-13503150D01*
X13331206Y-13503150D02*
X13359778Y-13503150D01*
X13359778Y-13503150D02*
X13378825Y-13512674D01*
X13378825Y-13512674D02*
X13388349Y-13531722D01*
X13388349Y-13531722D02*
X13388349Y-13636484D01*
X13388349Y-13531722D02*
X13397873Y-13512674D01*
X13397873Y-13512674D02*
X13416920Y-13503150D01*
X13416920Y-13503150D02*
X13445492Y-13503150D01*
X13445492Y-13503150D02*
X13464539Y-13512674D01*
X13464539Y-13512674D02*
X13474063Y-13531722D01*
X13474063Y-13531722D02*
X13474063Y-13636484D01*
X13569301Y-13636484D02*
X13569301Y-13503150D01*
X13569301Y-13522198D02*
X13578825Y-13512674D01*
X13578825Y-13512674D02*
X13597873Y-13503150D01*
X13597873Y-13503150D02*
X13626444Y-13503150D01*
X13626444Y-13503150D02*
X13645492Y-13512674D01*
X13645492Y-13512674D02*
X13655016Y-13531722D01*
X13655016Y-13531722D02*
X13655016Y-13636484D01*
X13655016Y-13531722D02*
X13664539Y-13512674D01*
X13664539Y-13512674D02*
X13683587Y-13503150D01*
X13683587Y-13503150D02*
X13712158Y-13503150D01*
X13712158Y-13503150D02*
X13731206Y-13512674D01*
X13731206Y-13512674D02*
X13740730Y-13531722D01*
X13740730Y-13531722D02*
X13740730Y-13636484D01*
X14131206Y-13426960D02*
X13959778Y-13684103D01*
X14388349Y-13436484D02*
X14407397Y-13436484D01*
X14407397Y-13436484D02*
X14426444Y-13446008D01*
X14426444Y-13446008D02*
X14435968Y-13455531D01*
X14435968Y-13455531D02*
X14445492Y-13474579D01*
X14445492Y-13474579D02*
X14455016Y-13512674D01*
X14455016Y-13512674D02*
X14455016Y-13560293D01*
X14455016Y-13560293D02*
X14445492Y-13598388D01*
X14445492Y-13598388D02*
X14435968Y-13617436D01*
X14435968Y-13617436D02*
X14426444Y-13626960D01*
X14426444Y-13626960D02*
X14407397Y-13636484D01*
X14407397Y-13636484D02*
X14388349Y-13636484D01*
X14388349Y-13636484D02*
X14369301Y-13626960D01*
X14369301Y-13626960D02*
X14359778Y-13617436D01*
X14359778Y-13617436D02*
X14350254Y-13598388D01*
X14350254Y-13598388D02*
X14340730Y-13560293D01*
X14340730Y-13560293D02*
X14340730Y-13512674D01*
X14340730Y-13512674D02*
X14350254Y-13474579D01*
X14350254Y-13474579D02*
X14359778Y-13455531D01*
X14359778Y-13455531D02*
X14369301Y-13446008D01*
X14369301Y-13446008D02*
X14388349Y-13436484D01*
X14540730Y-13617436D02*
X14550254Y-13626960D01*
X14550254Y-13626960D02*
X14540730Y-13636484D01*
X14540730Y-13636484D02*
X14531206Y-13626960D01*
X14531206Y-13626960D02*
X14540730Y-13617436D01*
X14540730Y-13617436D02*
X14540730Y-13636484D01*
X14674063Y-13436484D02*
X14693111Y-13436484D01*
X14693111Y-13436484D02*
X14712159Y-13446008D01*
X14712159Y-13446008D02*
X14721682Y-13455531D01*
X14721682Y-13455531D02*
X14731206Y-13474579D01*
X14731206Y-13474579D02*
X14740730Y-13512674D01*
X14740730Y-13512674D02*
X14740730Y-13560293D01*
X14740730Y-13560293D02*
X14731206Y-13598388D01*
X14731206Y-13598388D02*
X14721682Y-13617436D01*
X14721682Y-13617436D02*
X14712159Y-13626960D01*
X14712159Y-13626960D02*
X14693111Y-13636484D01*
X14693111Y-13636484D02*
X14674063Y-13636484D01*
X14674063Y-13636484D02*
X14655016Y-13626960D01*
X14655016Y-13626960D02*
X14645492Y-13617436D01*
X14645492Y-13617436D02*
X14635968Y-13598388D01*
X14635968Y-13598388D02*
X14626444Y-13560293D01*
X14626444Y-13560293D02*
X14626444Y-13512674D01*
X14626444Y-13512674D02*
X14635968Y-13474579D01*
X14635968Y-13474579D02*
X14645492Y-13455531D01*
X14645492Y-13455531D02*
X14655016Y-13446008D01*
X14655016Y-13446008D02*
X14674063Y-13436484D01*
X14816921Y-13455531D02*
X14826444Y-13446008D01*
X14826444Y-13446008D02*
X14845492Y-13436484D01*
X14845492Y-13436484D02*
X14893111Y-13436484D01*
X14893111Y-13436484D02*
X14912159Y-13446008D01*
X14912159Y-13446008D02*
X14921682Y-13455531D01*
X14921682Y-13455531D02*
X14931206Y-13474579D01*
X14931206Y-13474579D02*
X14931206Y-13493627D01*
X14931206Y-13493627D02*
X14921682Y-13522198D01*
X14921682Y-13522198D02*
X14807397Y-13636484D01*
X14807397Y-13636484D02*
X14931206Y-13636484D01*
X15112159Y-13436484D02*
X15016921Y-13436484D01*
X15016921Y-13436484D02*
X15007397Y-13531722D01*
X15007397Y-13531722D02*
X15016921Y-13522198D01*
X15016921Y-13522198D02*
X15035968Y-13512674D01*
X15035968Y-13512674D02*
X15083587Y-13512674D01*
X15083587Y-13512674D02*
X15102635Y-13522198D01*
X15102635Y-13522198D02*
X15112159Y-13531722D01*
X15112159Y-13531722D02*
X15121682Y-13550769D01*
X15121682Y-13550769D02*
X15121682Y-13598388D01*
X15121682Y-13598388D02*
X15112159Y-13617436D01*
X15112159Y-13617436D02*
X15102635Y-13626960D01*
X15102635Y-13626960D02*
X15083587Y-13636484D01*
X15083587Y-13636484D02*
X15035968Y-13636484D01*
X15035968Y-13636484D02*
X15016921Y-13626960D01*
X15016921Y-13626960D02*
X15007397Y-13617436D01*
X15293111Y-13436484D02*
X15255016Y-13436484D01*
X15255016Y-13436484D02*
X15235968Y-13446008D01*
X15235968Y-13446008D02*
X15226444Y-13455531D01*
X15226444Y-13455531D02*
X15207397Y-13484103D01*
X15207397Y-13484103D02*
X15197873Y-13522198D01*
X15197873Y-13522198D02*
X15197873Y-13598388D01*
X15197873Y-13598388D02*
X15207397Y-13617436D01*
X15207397Y-13617436D02*
X15216921Y-13626960D01*
X15216921Y-13626960D02*
X15235968Y-13636484D01*
X15235968Y-13636484D02*
X15274063Y-13636484D01*
X15274063Y-13636484D02*
X15293111Y-13626960D01*
X15293111Y-13626960D02*
X15302635Y-13617436D01*
X15302635Y-13617436D02*
X15312159Y-13598388D01*
X15312159Y-13598388D02*
X15312159Y-13550769D01*
X15312159Y-13550769D02*
X15302635Y-13531722D01*
X15302635Y-13531722D02*
X15293111Y-13522198D01*
X15293111Y-13522198D02*
X15274063Y-13512674D01*
X15274063Y-13512674D02*
X15235968Y-13512674D01*
X15235968Y-13512674D02*
X15216921Y-13522198D01*
X15216921Y-13522198D02*
X15207397Y-13531722D01*
X15207397Y-13531722D02*
X15197873Y-13550769D01*
X15388349Y-13436484D02*
X15388349Y-13474579D01*
X15464540Y-13436484D02*
X15464540Y-13474579D01*
X15759778Y-13712674D02*
X15750254Y-13703150D01*
X15750254Y-13703150D02*
X15731206Y-13674579D01*
X15731206Y-13674579D02*
X15721683Y-13655531D01*
X15721683Y-13655531D02*
X15712159Y-13626960D01*
X15712159Y-13626960D02*
X15702635Y-13579341D01*
X15702635Y-13579341D02*
X15702635Y-13541246D01*
X15702635Y-13541246D02*
X15712159Y-13493627D01*
X15712159Y-13493627D02*
X15721683Y-13465055D01*
X15721683Y-13465055D02*
X15731206Y-13446008D01*
X15731206Y-13446008D02*
X15750254Y-13417436D01*
X15750254Y-13417436D02*
X15759778Y-13407912D01*
X15921683Y-13503150D02*
X15921683Y-13636484D01*
X15874063Y-13426960D02*
X15826444Y-13569817D01*
X15826444Y-13569817D02*
X15950254Y-13569817D01*
X16178825Y-13636484D02*
X16178825Y-13436484D01*
X16264540Y-13636484D02*
X16264540Y-13531722D01*
X16264540Y-13531722D02*
X16255016Y-13512674D01*
X16255016Y-13512674D02*
X16235968Y-13503150D01*
X16235968Y-13503150D02*
X16207397Y-13503150D01*
X16207397Y-13503150D02*
X16188349Y-13512674D01*
X16188349Y-13512674D02*
X16178825Y-13522198D01*
X16388349Y-13636484D02*
X16369302Y-13626960D01*
X16369302Y-13626960D02*
X16359778Y-13617436D01*
X16359778Y-13617436D02*
X16350254Y-13598388D01*
X16350254Y-13598388D02*
X16350254Y-13541246D01*
X16350254Y-13541246D02*
X16359778Y-13522198D01*
X16359778Y-13522198D02*
X16369302Y-13512674D01*
X16369302Y-13512674D02*
X16388349Y-13503150D01*
X16388349Y-13503150D02*
X16416921Y-13503150D01*
X16416921Y-13503150D02*
X16435968Y-13512674D01*
X16435968Y-13512674D02*
X16445492Y-13522198D01*
X16445492Y-13522198D02*
X16455016Y-13541246D01*
X16455016Y-13541246D02*
X16455016Y-13598388D01*
X16455016Y-13598388D02*
X16445492Y-13617436D01*
X16445492Y-13617436D02*
X16435968Y-13626960D01*
X16435968Y-13626960D02*
X16416921Y-13636484D01*
X16416921Y-13636484D02*
X16388349Y-13636484D01*
X16569302Y-13636484D02*
X16550254Y-13626960D01*
X16550254Y-13626960D02*
X16540730Y-13607912D01*
X16540730Y-13607912D02*
X16540730Y-13436484D01*
X16721683Y-13626960D02*
X16702635Y-13636484D01*
X16702635Y-13636484D02*
X16664540Y-13636484D01*
X16664540Y-13636484D02*
X16645492Y-13626960D01*
X16645492Y-13626960D02*
X16635968Y-13607912D01*
X16635968Y-13607912D02*
X16635968Y-13531722D01*
X16635968Y-13531722D02*
X16645492Y-13512674D01*
X16645492Y-13512674D02*
X16664540Y-13503150D01*
X16664540Y-13503150D02*
X16702635Y-13503150D01*
X16702635Y-13503150D02*
X16721683Y-13512674D01*
X16721683Y-13512674D02*
X16731206Y-13531722D01*
X16731206Y-13531722D02*
X16731206Y-13550769D01*
X16731206Y-13550769D02*
X16635968Y-13569817D01*
X16807397Y-13626960D02*
X16826445Y-13636484D01*
X16826445Y-13636484D02*
X16864540Y-13636484D01*
X16864540Y-13636484D02*
X16883588Y-13626960D01*
X16883588Y-13626960D02*
X16893111Y-13607912D01*
X16893111Y-13607912D02*
X16893111Y-13598388D01*
X16893111Y-13598388D02*
X16883588Y-13579341D01*
X16883588Y-13579341D02*
X16864540Y-13569817D01*
X16864540Y-13569817D02*
X16835968Y-13569817D01*
X16835968Y-13569817D02*
X16816921Y-13560293D01*
X16816921Y-13560293D02*
X16807397Y-13541246D01*
X16807397Y-13541246D02*
X16807397Y-13531722D01*
X16807397Y-13531722D02*
X16816921Y-13512674D01*
X16816921Y-13512674D02*
X16835968Y-13503150D01*
X16835968Y-13503150D02*
X16864540Y-13503150D01*
X16864540Y-13503150D02*
X16883588Y-13512674D01*
X16959778Y-13712674D02*
X16969302Y-13703150D01*
X16969302Y-13703150D02*
X16988349Y-13674579D01*
X16988349Y-13674579D02*
X16997873Y-13655531D01*
X16997873Y-13655531D02*
X17007397Y-13626960D01*
X17007397Y-13626960D02*
X17016921Y-13579341D01*
X17016921Y-13579341D02*
X17016921Y-13541246D01*
X17016921Y-13541246D02*
X17007397Y-13493627D01*
X17007397Y-13493627D02*
X16997873Y-13465055D01*
X16997873Y-13465055D02*
X16988349Y-13446008D01*
X16988349Y-13446008D02*
X16969302Y-13417436D01*
X16969302Y-13417436D02*
X16959778Y-13407912D01*
X17321683Y-13712674D02*
X17312159Y-13703150D01*
X17312159Y-13703150D02*
X17293111Y-13674579D01*
X17293111Y-13674579D02*
X17283588Y-13655531D01*
X17283588Y-13655531D02*
X17274064Y-13626960D01*
X17274064Y-13626960D02*
X17264540Y-13579341D01*
X17264540Y-13579341D02*
X17264540Y-13541246D01*
X17264540Y-13541246D02*
X17274064Y-13493627D01*
X17274064Y-13493627D02*
X17283588Y-13465055D01*
X17283588Y-13465055D02*
X17293111Y-13446008D01*
X17293111Y-13446008D02*
X17312159Y-13417436D01*
X17312159Y-13417436D02*
X17321683Y-13407912D01*
X17397873Y-13503150D02*
X17397873Y-13636484D01*
X17397873Y-13522198D02*
X17407397Y-13512674D01*
X17407397Y-13512674D02*
X17426445Y-13503150D01*
X17426445Y-13503150D02*
X17455016Y-13503150D01*
X17455016Y-13503150D02*
X17474064Y-13512674D01*
X17474064Y-13512674D02*
X17483588Y-13531722D01*
X17483588Y-13531722D02*
X17483588Y-13636484D01*
X17607397Y-13636484D02*
X17588349Y-13626960D01*
X17588349Y-13626960D02*
X17578826Y-13617436D01*
X17578826Y-13617436D02*
X17569302Y-13598388D01*
X17569302Y-13598388D02*
X17569302Y-13541246D01*
X17569302Y-13541246D02*
X17578826Y-13522198D01*
X17578826Y-13522198D02*
X17588349Y-13512674D01*
X17588349Y-13512674D02*
X17607397Y-13503150D01*
X17607397Y-13503150D02*
X17635969Y-13503150D01*
X17635969Y-13503150D02*
X17655016Y-13512674D01*
X17655016Y-13512674D02*
X17664540Y-13522198D01*
X17664540Y-13522198D02*
X17674064Y-13541246D01*
X17674064Y-13541246D02*
X17674064Y-13598388D01*
X17674064Y-13598388D02*
X17664540Y-13617436D01*
X17664540Y-13617436D02*
X17655016Y-13626960D01*
X17655016Y-13626960D02*
X17635969Y-13636484D01*
X17635969Y-13636484D02*
X17607397Y-13636484D01*
X17731207Y-13503150D02*
X17807397Y-13503150D01*
X17759778Y-13436484D02*
X17759778Y-13607912D01*
X17759778Y-13607912D02*
X17769302Y-13626960D01*
X17769302Y-13626960D02*
X17788349Y-13636484D01*
X17788349Y-13636484D02*
X17807397Y-13636484D01*
X18026445Y-13503150D02*
X18026445Y-13703150D01*
X18026445Y-13512674D02*
X18045492Y-13503150D01*
X18045492Y-13503150D02*
X18083588Y-13503150D01*
X18083588Y-13503150D02*
X18102635Y-13512674D01*
X18102635Y-13512674D02*
X18112159Y-13522198D01*
X18112159Y-13522198D02*
X18121683Y-13541246D01*
X18121683Y-13541246D02*
X18121683Y-13598388D01*
X18121683Y-13598388D02*
X18112159Y-13617436D01*
X18112159Y-13617436D02*
X18102635Y-13626960D01*
X18102635Y-13626960D02*
X18083588Y-13636484D01*
X18083588Y-13636484D02*
X18045492Y-13636484D01*
X18045492Y-13636484D02*
X18026445Y-13626960D01*
X18235969Y-13636484D02*
X18216921Y-13626960D01*
X18216921Y-13626960D02*
X18207397Y-13607912D01*
X18207397Y-13607912D02*
X18207397Y-13436484D01*
X18397873Y-13636484D02*
X18397873Y-13531722D01*
X18397873Y-13531722D02*
X18388350Y-13512674D01*
X18388350Y-13512674D02*
X18369302Y-13503150D01*
X18369302Y-13503150D02*
X18331207Y-13503150D01*
X18331207Y-13503150D02*
X18312159Y-13512674D01*
X18397873Y-13626960D02*
X18378826Y-13636484D01*
X18378826Y-13636484D02*
X18331207Y-13636484D01*
X18331207Y-13636484D02*
X18312159Y-13626960D01*
X18312159Y-13626960D02*
X18302635Y-13607912D01*
X18302635Y-13607912D02*
X18302635Y-13588865D01*
X18302635Y-13588865D02*
X18312159Y-13569817D01*
X18312159Y-13569817D02*
X18331207Y-13560293D01*
X18331207Y-13560293D02*
X18378826Y-13560293D01*
X18378826Y-13560293D02*
X18397873Y-13550769D01*
X18464540Y-13503150D02*
X18540730Y-13503150D01*
X18493111Y-13436484D02*
X18493111Y-13607912D01*
X18493111Y-13607912D02*
X18502635Y-13626960D01*
X18502635Y-13626960D02*
X18521683Y-13636484D01*
X18521683Y-13636484D02*
X18540730Y-13636484D01*
X18683588Y-13626960D02*
X18664540Y-13636484D01*
X18664540Y-13636484D02*
X18626445Y-13636484D01*
X18626445Y-13636484D02*
X18607397Y-13626960D01*
X18607397Y-13626960D02*
X18597873Y-13607912D01*
X18597873Y-13607912D02*
X18597873Y-13531722D01*
X18597873Y-13531722D02*
X18607397Y-13512674D01*
X18607397Y-13512674D02*
X18626445Y-13503150D01*
X18626445Y-13503150D02*
X18664540Y-13503150D01*
X18664540Y-13503150D02*
X18683588Y-13512674D01*
X18683588Y-13512674D02*
X18693111Y-13531722D01*
X18693111Y-13531722D02*
X18693111Y-13550769D01*
X18693111Y-13550769D02*
X18597873Y-13569817D01*
X18864540Y-13636484D02*
X18864540Y-13436484D01*
X18864540Y-13626960D02*
X18845492Y-13636484D01*
X18845492Y-13636484D02*
X18807397Y-13636484D01*
X18807397Y-13636484D02*
X18788350Y-13626960D01*
X18788350Y-13626960D02*
X18778826Y-13617436D01*
X18778826Y-13617436D02*
X18769302Y-13598388D01*
X18769302Y-13598388D02*
X18769302Y-13541246D01*
X18769302Y-13541246D02*
X18778826Y-13522198D01*
X18778826Y-13522198D02*
X18788350Y-13512674D01*
X18788350Y-13512674D02*
X18807397Y-13503150D01*
X18807397Y-13503150D02*
X18845492Y-13503150D01*
X18845492Y-13503150D02*
X18864540Y-13512674D01*
X18940731Y-13712674D02*
X18950254Y-13703150D01*
X18950254Y-13703150D02*
X18969302Y-13674579D01*
X18969302Y-13674579D02*
X18978826Y-13655531D01*
X18978826Y-13655531D02*
X18988350Y-13626960D01*
X18988350Y-13626960D02*
X18997873Y-13579341D01*
X18997873Y-13579341D02*
X18997873Y-13541246D01*
X18997873Y-13541246D02*
X18988350Y-13493627D01*
X18988350Y-13493627D02*
X18978826Y-13465055D01*
X18978826Y-13465055D02*
X18969302Y-13446008D01*
X18969302Y-13446008D02*
X18950254Y-13417436D01*
X18950254Y-13417436D02*
X18940731Y-13407912D01*
M02*
